<svg width="50" height="50" viewBox="0 0 50 50" fill="none" xmlns="http://www.w3.org/2000/svg"><g filter="url(#filter0_d)"><circle cx="25" cy="23" r="20" fill="#0E0D0D"/></g><path d="M11 18.1705v-.7903l8.1673-.0749.6888.0509.6396.1018.8364.1527.7872.3562.6396.3563.6396.5089.5412.5598.492.6106.3936.8143.3444 1.0687.1968-.5598.3444-.7125.3937-.6615.492-.6616.738-.7634.738-.458.7872-.4071.6888-.2545.738-.2035.7872-.1527.9348-.0509h.8364l.9348.1018.7872.1527.6396.1526.6396.2036.6397.2544 1.1808.6616-.1476 2.6972-1.3284-.0509-.3445-.6107-.3444-.5598-.2952-.458-.3444-.458-.5412-.4071-.6396-.3562-.5904-.2545-.6888-.1018h-.6888l-.6888.1018-.5904.2545-.6396.5089-.4428.5598-.3444.6106-.2952.7634-.1968.6616-.1476.7633-.0492.8652v.6616l.0492.7633.1476.8143.1476.6107.246.8142.2952.5598.3444.5598.3444.458.4428.4071.492.3054.492.2544.5904.1018h1.23l.6396-.2035.5412-.2545.4428-.3053.3936-.4072.3444-.458.3936-.6616.2461-.6615.1476-.5089h1.3776v3.1043l-.3936.2544-.6888.3054-1.0825.3562-.984.2036-1.0332.1526-1.0332.0509-.8856-.0509-.6396-.0508-1.3284-.2545-.7872-.3053-.6888-.3054-.6396-.3562-.6888-.5089-.4428-.458-.3936-.5089-.3445-.509-.246-.5089-.1968-.5089-.1476-.5089-.1476.5089-.1968.5089-.2952.5089-.5412.7125-.5412.6107-.6888.5089-.6396.4071-.5904.2545-.5412.2035-.4428.1018h-.7872l.1968-.2035.246-.2545.246-.3562.3444-.6616.3444-.916.2952-1.1705.246-1.4249.246-1.0688.246-.9669.0984-.4071.0984-.3562.0984-.3054.0984-.3562.0984-.2545-4.2312 5.3944.0492.0509.0492.1527.0492.1527-.0492.2035-.0492.1527-.1476.1527-.0984.1018-.1476.0509h-.2952l-.0984-.0509-.0984-.0509-.0984-.1018-.0984-.1018-.0492-.1527v-.3053l.0492-.1527.0492-.1018.0984-.1017.0984-.1018.1476-.0509h.2952l.1476.0509 3.7392-4.7328.2952-.3563.1476-.2544-.3444.2544-.246.1527-.2952.1527-.3936.2035-.5904.3054-.6396.3053-.6396.3054-.6396.2544-.492.2545-.5904.2544-.3936.1527-.2952.2035-.3444.2036-.3444.2036-.3445.3053-.2952.2036-.1968.2544-.1476.1527-.246.2545-.1476.3053-.1968.4071-.1476.3563-.1476.3562-.1476.3562-.1476.5089-.1476.3054-.1968.3562-.1476.3054-.246.4071-.246.3053-.1476.2036-.2952.3053-.1476.2036-.1476.0509H11V29.1629H11.3444l.2952-.0509.2952-.1018.1476-.1018.1476-.1018.0984-.1527.1476-.3053.0984-.2036V19.4936l-.0984-.5598-.2952-.4071-.3936-.2544-.3936-.1018H11z" fill="#F0F0F0"/><defs><filter id="filter0_d" x="0" y="0" width="50" height="50" filterUnits="userSpaceOnUse" color-interpolation-filters="sRGB"><feFlood flood-opacity="0" result="BackgroundImageFix"/><feColorMatrix in="SourceAlpha" values="0 0 0 0 0 0 0 0 0 0 0 0 0 0 0 0 0 0 127 0"/><feOffset dy="2"/><feGaussianBlur stdDeviation="2.5"/><feColorMatrix values="0 0 0 0 0 0 0 0 0 0 0 0 0 0 0 0 0 0 0.25 0"/><feBlend in2="BackgroundImageFix" result="effect1_dropShadow"/><feBlend in="SourceGraphic" in2="effect1_dropShadow" result="shape"/></filter></defs></svg>