<svg width="30" height="25" viewBox="0 0 30 25" fill="none" xmlns="http://www.w3.org/2000/svg">
<path d="M22.4987 0.00520167L18.6084 0C14.2378 0 11.4134 2.41487 11.4134 6.15253V8.98926H7.50185C7.16385 8.98926 6.89014 9.21762 6.89014 9.49929V13.6094C6.89014 13.8911 7.16416 14.1191 7.50185 14.1191H11.4134V24.4902C11.4134 24.7719 11.6871 25 12.0251 25H17.1285C17.4665 25 17.7402 24.7716 17.7402 24.4902V14.1191H22.3137C22.6517 14.1191 22.9254 13.8911 22.9254 13.6094L22.9272 9.49929C22.9272 9.36404 22.8626 9.23452 22.7481 9.13881C22.6336 9.0431 22.4775 8.98926 22.3152 8.98926H17.7402V6.58453C17.7402 5.42872 18.0707 4.84197 19.8774 4.84197L22.4981 4.84119C22.8358 4.84119 23.1095 4.61284 23.1095 4.33143V0.514965C23.1095 0.233815 22.8361 0.00572184 22.4987 0.00520167Z" fill="#F8F8F8"/>
</svg>
