<svg width="25" height="20" viewBox="0 0 25 20" fill="none" xmlns="http://www.w3.org/2000/svg">
<path d="M25 2.36769C24.0703 2.76923 23.0797 3.03538 22.0469 3.16462C23.1094 2.54 23.9203 1.55846 24.3016 0.375385C23.3109 0.956923 22.2172 1.36769 21.0516 1.59692C20.1109 0.610769 18.7703 0 17.3078 0C14.4703 0 12.1859 2.26769 12.1859 5.04769C12.1859 5.44769 12.2203 5.83231 12.3047 6.19846C8.04375 5.99385 4.27344 3.98308 1.74062 0.92C1.29844 1.67538 1.03906 2.54 1.03906 3.47077C1.03906 5.21846 1.95312 6.76769 3.31562 7.66462C2.49219 7.64923 1.68437 7.41385 1 7.04308C1 7.05846 1 7.07846 1 7.09846C1 9.55077 2.77656 11.5877 5.10625 12.0569C4.68906 12.1692 4.23437 12.2231 3.7625 12.2231C3.43437 12.2231 3.10312 12.2046 2.79219 12.1369C3.45625 14.1354 5.34063 15.6046 7.58125 15.6523C5.8375 16.9954 3.62344 17.8046 1.22656 17.8046C0.80625 17.8046 0.403125 17.7862 0 17.7354C2.27031 19.1769 4.96094 20 7.8625 20C17.2937 20 22.45 12.3077 22.45 5.64C22.45 5.41692 22.4422 5.20154 22.4312 4.98769C23.4484 4.27692 24.3031 3.38923 25 2.36769Z" fill="#F8F8F8"/>
</svg>
